<?xml version="1.0" encoding="UTF-8"?>
<svg id="Layer_1" xmlns="http://www.w3.org/2000/svg" version="1.1" viewBox="0 0 438.89 363.06">
  <!-- Generator: Adobe Illustrator 29.2.1, SVG Export Plug-In . SVG Version: 2.1.0 Build 116)  -->
  <defs>
    <style>
      .st0 {
        fill: #f17330;
      }

      .st1 {
        fill: #090909;
      }

      .st2 {
        fill: #f07230;
      }

      .st3 {
        fill: #f0702f;
      }

      .st4 {
        fill: #2f2e2d;
      }
    </style>
  </defs>
  <g>
    <path class="st3" d="M38.15,276C94.66,189.02,151.17,102.04,207.68,15.06c21.62,57.87,43.23,115.74,64.85,173.62-23.83-25.02-47.66-50.04-71.49-75.06-54.3,54.13-108.6,108.26-162.89,162.38Z"/>
    <path class="st0" d="M188.79,150.89c-.94.92-1.89,1.85-2.83,2.77-44.33,43.5-88.67,87-133,130.5,110.64.68,221.28,1.36,331.91,2.04-78.13-16-156.26-32-234.38-48,12.77-29.11,25.53-58.21,38.3-87.32Z"/>
    <path class="st1" d="M223,9.96c56,86.98,112,173.96,168,260.94-66.04-12.09-132.09-24.17-198.13-36.26,34.89-4.94,69.79-9.87,104.68-14.81-24.85-69.96-49.7-139.91-74.55-209.87Z"/>
  </g>
  <g>
    <g>
      <path class="st2" d="M135.69,321.49c0,3.56-.94,6.45-2.8,8.65-2,2.34-4.76,3.51-8.28,3.51-.59,0-1.48-.03-2.66-.1-1.19-.07-2.07-.1-2.66-.1-.63,0-.95.27-.95.82,0,.68.07,1.69.2,3.02.13,1.34.2,2.34.2,3,0,.34-.15.51-.46.51-.9,0-2.24-.03-4.04-.08-1.8-.05-3.14-.08-4.04-.08-.43,0-.64-.21-.64-.64,0-1.63.03-4.09.08-7.36.05-3.27.08-5.73.08-7.36,0-4.62-.2-9.48-.6-14.57l-.02-.31c-.03-.28.19-.45.66-.51,1.15-.15,3.68-.22,7.59-.22,2.31,0,4.53.03,6.65.09,3.49.1,6.3,1.2,8.43,3.29,2.18,2.15,3.27,4.96,3.27,8.43ZM126.88,321.84c0-3.43-1.67-5.14-5.01-5.14-2.35,0-3.59.13-3.71.4-.1.19-.15,1.89-.15,5.1,0,.46.02,1.13.06,2.02.04.89.06,1.56.06,2.02,0,.29,1.32.44,3.97.44,3.19,0,4.79-1.61,4.79-4.83Z"/>
      <path class="st2" d="M168.42,340.43c0,.1-.15.18-.44.22-.56.09-1.96.13-4.22.13-1.93,0-3.24-.04-3.93-.13-.32-.04-.51-.08-.55-.11-.09-.04-.19-.19-.31-.44-.22-.57-.54-1.43-.97-2.56-.57-1.47-1.47-3.64-2.69-6.51-.26-.57-.88-.89-1.83-.95.44.03-.32.04-2.27.04-.22,0-.33.38-.33,1.13,0,1,.09,2.49.28,4.48.18,1.99.28,3.48.28,4.48,0,.25-.07.4-.2.44-.21.01-.41.03-.62.04-.87.06-2.22.09-4.06.09-2.1,0-3.37-.04-3.8-.13-.43-.09-.64-.32-.64-.68,0-1.62.08-4.06.23-7.33.15-3.27.23-5.72.23-7.35,0-6.23-.14-11.08-.42-14.57l-.02-.31c-.02-.25.22-.42.7-.51.48-.09,2.73-.18,6.74-.27,2.72-.06,4.89-.09,6.51-.09,3.36,0,6.09.76,8.21,2.27,2.4,1.71,3.6,4.17,3.6,7.4,0,2.15-.31,3.86-.93,5.14s-1.76,2.52-3.42,3.73c-.34.24-.51.46-.51.66,0-.01.9,1.83,2.69,5.54,1.8,3.71,2.69,5.75,2.69,6.14ZM159.15,320.63c0-1.8-.59-3.04-1.77-3.73-.91-.53-2.34-.79-4.28-.79-1.4,0-2.14.21-2.23.64-.09.5-.13,1.94-.13,4.33,0,.34,0,.84.02,1.5s.02,1.16.02,1.48c0,.07.23.15.71.22.9.13,1.84.2,2.83.2,3.22,0,4.83-1.28,4.83-3.84Z"/>
      <path class="st2" d="M204.97,325.2c0,4.59-1.46,8.44-4.39,11.55-2.99,3.15-6.77,4.72-11.35,4.72s-8.32-1.59-11.33-4.77c-2.94-3.1-4.42-6.94-4.42-11.5s1.47-8.43,4.42-11.55c3-3.19,6.78-4.79,11.33-4.79s8.29,1.6,11.3,4.79c2.96,3.15,4.44,7,4.44,11.55ZM196.61,325.15c0-2.21-.67-4.08-2.01-5.63-1.4-1.62-3.19-2.43-5.36-2.43s-3.83.84-5.28,2.52c-1.4,1.62-2.1,3.48-2.1,5.58,0,2.25.65,4.13,1.96,5.63,1.38,1.58,3.19,2.36,5.41,2.36,2.08,0,3.84-.83,5.3-2.5,1.38-1.59,2.08-3.44,2.08-5.54Z"/>
    </g>
    <g>
      <path class="st4" d="M233.93,317.25c0,.29-.16.44-.49.44-.56,0-2.77-.11-6.65-.33-.09,3.72-.13,6.32-.13,7.79,0,1.74.07,4.35.21,7.84.14,3.49.21,6.1.21,7.84,0,.28-.07.46-.2.53-.04.03-.25.07-.62.11-.88.12-2.18.18-3.89.18-1.9,0-3.23-.06-4-.18-.41-.07-.62-.3-.62-.68,0-1.74.07-4.34.22-7.82.15-3.47.22-6.08.22-7.81,0-1.15-.06-3.71-.18-7.68-2.94.29-5.29.44-7.04.44-.24,0-.35-.07-.35-.22,0-.19.1-.76.31-1.7.24-1.03.37-1.66.4-1.88.04-.69.1-1.38.15-2.08.1-1.1.28-1.66.53-1.66.03,0,.13,0,.31.02,2.38.31,5.91.46,10.58.46,1.32,0,3.77-.14,7.33-.42,1.91-.15,2.88-.22,2.89-.22.29,0,.46.02.51.06.04.04.07.18.09.43,0,.4-.01.95-.04,1.66-.03.78-.04,1.33-.04,1.66,0,.37.05.91.14,1.62.1.71.14,1.25.14,1.6Z"/>
      <path class="st4" d="M262.29,334.6c0,.63-.12,1.8-.38,3.49-.26,1.84-.5,2.94-.71,3.29-.18.28-.42.42-.73.42-.13,0-.35-.02-.66-.07-1.07-.15-4.21-.22-9.41-.22-1.13,0-2.82,0-5.05-.02-2.24-.02-3.92-.02-5.03-.02-.49,0-.73-.21-.73-.64,0-1.65.09-4.12.28-7.43.18-3.3.28-5.78.28-7.43s-.09-4.8-.26-9.38c-.04-1.18-.13-2.94-.24-5.28l-.02-.31c-.03-.34.15-.51.55-.51,1.09,0,2.73.03,4.91.09,2.19.06,3.82.09,4.91.09s2.69-.03,4.86-.09c2.16-.06,3.78-.09,4.86-.09.77,0,1.21.29,1.32.86.07.34.19,1.37.34,3.08.16,1.71.23,2.76.23,3.12,0,.31-.15.46-.44.46-.09,0-.24,0-.46-.02-3.92-.32-7.43-.49-10.55-.49-.78,0-1.26.18-1.44.55-.07.18-.11.74-.11,1.7s.15,1.66.44,1.99c.25.28.73.42,1.43.42.15,0,.43-.01.86-.03.43-.02.78-.03,1.06-.03,1.85,0,3.73-.05,5.63-.15.16-.01.57-.05,1.21-.11.5-.06.9-.09,1.19-.09.35,0,.53.17.53.51,0-.31-.13.82-.4,3.38-.12,1.18-.18,2.35-.18,3.53,0,.29-.21.44-.64.44l-1.99-.22c-.84-.09-2.75-.13-5.74-.13h-2.34c-.6,0-.96.15-1.06.44-.02.07-.02.53-.02,1.37,0,1.12.07,1.84.22,2.16.25.56,1.19.89,2.83.99-.03,0,1.04,0,3.22,0,.78,0,1.94-.07,3.48-.21,1.54-.14,2.69-.21,3.46-.21.32,0,.49.27.49.79Z"/>
      <path class="st4" d="M294.41,336.48c0,.24-.15.54-.46.93-2.71,3.22-6.31,4.83-10.79,4.83s-8.32-1.57-11.17-4.7c-2.78-3.03-4.17-6.86-4.17-11.48s1.36-8.27,4.08-11.39c2.84-3.27,6.45-4.9,10.84-4.9,4.77,0,8.51,1.46,11.21,4.39.29.32.44.61.44.86,0,.28-.51,1.32-1.53,3.11-1.02,1.8-1.67,2.8-1.93,3.02-.12.12-.26.18-.44.18-.07,0-.44-.29-1.1-.88-.79-.71-1.57-1.26-2.34-1.66-1.16-.59-2.37-.88-3.62-.88-2.16,0-3.89.81-5.19,2.43-1.19,1.5-1.79,3.36-1.79,5.56s.6,4.11,1.79,5.63c1.29,1.65,3.03,2.47,5.19,2.47,1.28,0,2.5-.28,3.64-.84.75-.37,1.52-.88,2.3-1.55.65-.56,1.01-.84,1.08-.84.15,0,.29.08.44.24.24.26.88,1.18,1.92,2.76,1.07,1.63,1.61,2.53,1.61,2.69Z"/>
      <path class="st4" d="M329.81,340.78c0,.31-.07.5-.2.57-.06.04-.27.08-.62.11-.9.09-2.16.13-3.8.13-2.31,0-3.67-.04-4.07-.13-.41-.09-.61-.29-.61-.6,0-1.16.05-2.91.17-5.24.11-2.33.17-4.08.17-5.24,0-.57-.16-.9-.49-.99-.5-.12-2.28-.18-5.34-.18s-4.87.06-5.39.18c-.32.07-.49.41-.49.99,0,1.15.04,2.87.11,5.16.07,2.29.11,4.01.11,5.16,0,.44-.2.7-.6.77-.47.09-1.85.13-4.15.13-1.99,0-3.25-.04-3.8-.13-.43-.07-.64-.3-.64-.68,0-1.59.08-3.99.23-7.2.15-3.21.23-5.61.23-7.22,0-1.71-.07-4.27-.22-7.69-.15-3.42-.22-5.99-.22-7.69,0-.32.15-.49.46-.49.46,0,1.14.02,2.06.07.92.04,1.61.07,2.06.07s1.18-.02,2.13-.07c.95-.04,1.66-.07,2.13-.07.25,0,.38.13.38.4,0,1.1-.08,2.76-.24,4.96s-.24,3.85-.24,4.96c0,.52.14.82.42.91.38.12,2.27.18,5.65.18,3.15,0,4.97-.06,5.48-.18.35-.09.53-.39.53-.91,0-1.06-.05-2.66-.15-4.8-.1-2.14-.16-3.75-.16-4.82,0-.46.18-.68.55-.68.43,0,1.08.02,1.95.07.88.04,1.53.07,1.98.07s1.08-.02,1.95-.07c.88-.04,1.53-.07,1.98-.07s.64.18.64.53c0,1.69-.07,4.25-.21,7.66s-.21,5.98-.21,7.68c0,1.6.08,4.01.23,7.22.15,3.21.23,5.61.23,7.2Z"/>
    </g>
  </g>
</svg>